<svg width="28" height="28" viewBox="0 0 28 28" fill="none" xmlns="http://www.w3.org/2000/svg">
<path d="M14 28C21.732 28 28 21.732 28 14C28 6.26801 21.732 0 14 0C6.26801 0 0 6.26801 0 14C0 21.732 6.26801 28 14 28ZM14 2C15.0317 2 16.283 2.94804 17.3347 5.22667C17.7084 6.03639 18.0331 6.9697 18.2941 8H9.7059C9.96688 6.9697 10.2916 6.03639 10.6653 5.22667C11.717 2.94804 12.9683 2 14 2ZM8.8494 4.38855C8.36004 5.44883 7.95424 6.66735 7.64867 8H3.60539C4.97928 5.62495 7.1438 3.76448 9.73907 2.77849C9.4088 3.27683 9.11184 3.81994 8.8494 4.38855ZM7.27878 10C7.0968 11.2705 7 12.6141 7 14C7 15.3859 7.0968 16.7295 7.27878 18H2.68282C2.24062 16.7489 2 15.4025 2 14C2 12.5975 2.24062 11.2511 2.68282 10H7.27878ZM7.64867 20C7.95424 21.3327 8.36004 22.5512 8.8494 23.6114C9.11184 24.1801 9.4088 24.7232 9.73907 25.2215C7.1438 24.2355 4.97928 22.375 3.60539 20H7.64867ZM9.7059 20H18.2941C18.0331 21.0303 17.7084 21.9636 17.3347 22.7733C16.283 25.052 15.0317 26 14 26C12.9683 26 11.717 25.052 10.6653 22.7733C10.2916 21.9636 9.96688 21.0303 9.7059 20ZM18.6991 18H9.3009C9.10676 16.7518 9 15.4068 9 14C9 12.5932 9.10676 11.2482 9.3009 10H18.6991C18.8932 11.2482 19 12.5932 19 14C19 15.4068 18.8932 16.7518 18.6991 18ZM20.3513 20H24.3946C23.0207 22.375 20.8562 24.2355 18.2609 25.2215C18.5912 24.7232 18.8882 24.1801 19.1506 23.6114C19.64 22.5512 20.0458 21.3327 20.3513 20ZM25.3172 18H20.7212C20.9032 16.7295 21 15.3859 21 14C21 12.6141 20.9032 11.2705 20.7212 10H25.3172C25.7594 11.2511 26 12.5975 26 14C26 15.4025 25.7594 16.7489 25.3172 18ZM18.2609 2.77849C20.8562 3.76448 23.0207 5.62495 24.3946 8H20.3513C20.0458 6.66735 19.64 5.44883 19.1506 4.38855C18.8882 3.81994 18.5912 3.27683 18.2609 2.77849Z" fill="#212121"/>
</svg>
