<svg width="24" height="24" viewBox="0 0 24 24" fill="none" xmlns="http://www.w3.org/2000/svg">
<path d="M6.5234 24L6.53336 23.9999H18.375C19.7959 23.9999 20.9479 22.8474 20.9479 21.4256V10.0108C23.3612 9.91514 24.8076 7.23602 23.5175 5.15412L22.7639 3.9379C22.1839 3.00187 21.1614 2.43243 20.0606 2.43243H17.909V1.47973C17.909 0.662495 17.2469 0 16.4301 0C14.4049 0 12.7632 1.64263 12.7632 3.66891V8.8535C10.8464 9.04125 9.39865 9.94933 8.33595 11.2253C7.16183 12.635 6.47101 14.4732 6.05938 16.2383C5.64559 18.0127 5.49985 19.7756 5.45615 21.0871C5.43745 21.6485 5.43735 22.1307 5.44343 22.5H4.455C2.82254 22.5 1.49917 21.1759 1.49917 19.5425C1.49917 18.7934 1.78328 18.0722 2.29412 17.5246L3.67469 16.0446C5.01909 14.6034 5.46814 12.5419 4.84507 10.6717C4.58105 9.87913 4.13622 9.15899 3.54581 8.56829L2.19126 7.21305C1.89852 6.92016 1.42391 6.92017 1.13119 7.21307C0.838467 7.50597 0.838478 7.98084 1.13122 8.27373L2.48577 9.62897C2.91159 10.055 3.23241 10.5744 3.42284 11.146C3.87221 12.4949 3.54834 13.9817 2.57872 15.0211L1.19815 16.5011C0.42821 17.3265 0 18.4135 0 19.5425C0 22.0043 1.99457 24 4.455 24H6.5234ZM16.4098 1.50009V3.18242C16.4098 3.59664 16.7454 3.93242 17.1594 3.93242H20.0606C20.6426 3.93242 21.1831 4.23346 21.4898 4.72831L22.2434 5.94452C22.9379 7.06531 22.1323 8.51349 20.8143 8.51349H20.1983C19.7843 8.51349 19.4487 8.84928 19.4487 9.26349V21.4256C19.4487 22.0189 18.968 22.4999 18.375 22.4999H17.3011V21.4257C17.3011 18.9964 15.3329 17.0271 12.9049 17.0271H11.3855C10.9715 17.0271 10.6359 17.3628 10.6359 17.7771C10.6359 18.1913 10.9715 18.5271 11.3855 18.5271H12.9049C14.5049 18.5271 15.802 19.8248 15.802 21.4257V22.4999H6.94282C6.93668 22.1494 6.93629 21.6833 6.95449 21.137C6.99626 19.8831 7.13542 18.2254 7.51933 16.5792C7.90539 14.9237 8.52508 13.3413 9.48764 12.1856C10.4273 11.0573 11.7046 10.3175 13.5128 10.3175C13.9268 10.3175 14.2624 9.98175 14.2624 9.56754V3.66891C14.2624 2.47782 15.222 1.51097 16.4098 1.50009Z" fill="#212121"/>
</svg>
