<svg width="36" height="37" viewBox="0 0 36 37" fill="none" xmlns="http://www.w3.org/2000/svg">
<path d="M13 23.25C13 22.5596 13.5596 22 14.25 22H21.75C22.4404 22 23 22.5596 23 23.25C23 23.9404 22.4404 24.5 21.75 24.5H14.25C13.5596 24.5 13 23.9404 13 23.25ZM10 20C10 21.1046 9.10457 22 8 22C6.89543 22 6 21.1046 6 20C6 18.8954 6.89543 18 8 18C9.10457 18 10 18.8954 10 20ZM28 22C29.1046 22 30 21.1046 30 20C30 18.8954 29.1046 18 28 18C26.8954 18 26 18.8954 26 20C26 21.1046 26.8954 22 28 22ZM2.76513 12.2666L3.19777 10.5H1.25C0.559644 10.5 0 9.94036 0 9.25C0 8.55964 0.559644 8 1.25 8H3.81001L4.60267 4.76332C5.28752 1.96683 7.79415 0 10.6733 0H24.9785C27.769 0 30.2214 1.84986 30.988 4.53299L31.9786 8H34.75C35.4404 8 36 8.55964 36 9.25C36 9.94036 35.4404 10.5 34.75 10.5H32.6929L33.1933 12.2513C34.83 12.8422 36 14.4095 36 16.25V33.75C36 35.5449 34.5449 37 32.75 37H29.25C27.4551 37 26 35.5449 26 33.75V30.5H10V33.75C10 35.5449 8.54493 37 6.75 37H3.25C1.45507 37 0 35.5449 0 33.75V16.25C0 14.4251 1.15016 12.8689 2.76513 12.2666ZM7.03091 5.35799L5.4043 12H30.5214L28.5842 5.2198C28.1243 3.60991 26.6528 2.5 24.9785 2.5H10.6733C8.9458 2.5 7.44182 3.6801 7.03091 5.35799ZM4.25 14.5C3.2835 14.5 2.5 15.2835 2.5 16.25V28H33.5V16.25C33.5 15.2835 32.7165 14.5 31.75 14.5H4.25ZM28.5 33.75C28.5 34.1642 28.8358 34.5 29.25 34.5H32.75C33.1642 34.5 33.5 34.1642 33.5 33.75V30.5H28.5V33.75ZM2.5 30.5V33.75C2.5 34.1642 2.83579 34.5 3.25 34.5H6.75C7.16421 34.5 7.5 34.1642 7.5 33.75V30.5H2.5Z" fill="#212121"/>
</svg>
