<svg width="42" height="42" viewBox="0 0 42 42" fill="none" xmlns="http://www.w3.org/2000/svg">
<path d="M13.5356 2.45151C30.8236 -4.46711 47.8818 13.8873 38.5927 30.6076C34.3735 38.2022 23.8906 44.318 11.6844 38.5336L3.20015 40.9576C1.88371 41.3338 0.667172 40.1222 1.03658 38.8046C1.54297 36.9986 2.74282 32.7407 3.44434 30.4333C-1.81697 21.045 1.73075 7.17579 13.5356 2.45151ZM12.9956 17.2505C12.9956 17.9409 13.5552 18.5005 14.2456 18.5005H27.75C28.4404 18.5005 29 17.9409 29 17.2505C29 16.5602 28.4404 16.0005 27.75 16.0005H14.2456C13.5552 16.0005 12.9956 16.5602 12.9956 17.2505ZM14.25 23.4755C13.5597 23.4755 13 24.0352 13 24.7255C13 25.4159 13.5597 25.9755 14.25 25.9755H23.75C24.4404 25.9755 25 25.4159 25 24.7255C25 24.0352 24.4404 23.4755 23.75 23.4755H14.25Z" fill="#212121"/>
</svg>
