<svg width="42" height="42" viewBox="0 0 42 42" fill="none" xmlns="http://www.w3.org/2000/svg">
<path d="M12.9956 17.2505C12.9956 16.5601 13.5552 16.0005 14.2456 16.0005H27.75C28.4404 16.0005 29 16.5601 29 17.2505C29 17.9408 28.4404 18.5005 27.75 18.5005H14.2456C13.5552 18.5005 12.9956 17.9408 12.9956 17.2505ZM14.25 23.4755C13.5596 23.4755 13 24.0351 13 24.7255C13 25.4158 13.5596 25.9755 14.25 25.9755H23.75C24.4404 25.9755 25 25.4158 25 24.7255C25 24.0351 24.4404 23.4755 23.75 23.4755H14.25ZM13.5356 2.45151C30.8236 -4.46711 47.8818 13.8873 38.5927 30.6076C34.3735 38.2022 23.8906 44.318 11.6844 38.5336L3.20015 40.9576C1.88372 41.3338 0.667169 40.1222 1.03658 38.8046C1.54297 36.9986 2.74282 32.7407 3.44434 30.4333C-1.81697 21.045 1.73075 7.17579 13.5356 2.45151ZM36.4073 29.3935C44.4931 14.839 29.6844 -1.31846 14.4645 4.77254C3.98793 8.96523 0.939158 21.4657 5.87007 29.6319L6.16098 30.1136L5.99311 30.6508C5.46098 32.3537 4.45624 35.8846 3.80802 38.1839L11.9218 35.8657L12.3552 36.0806C23.3615 41.5367 32.6771 36.1079 36.4073 29.3935Z" fill="#212121"/>
</svg>
