<svg width="20" height="20" viewBox="0 0 20 20" fill="none" xmlns="http://www.w3.org/2000/svg">
<path d="M10 0C10.7139 0 11.4187 0.0749364 12.1059 0.222281C12.6865 0.346788 12.899 1.06471 12.4797 1.48521C12.0148 1.95137 11.75 2.57868 11.75 3.25C11.75 4.42043 12.5612 5.42718 13.6858 5.68625C14.0559 5.7715 14.3039 6.1199 14.2632 6.49747C14.2544 6.5787 14.25 6.66307 14.25 6.75C14.25 8.13071 15.3693 9.25 16.75 9.25C17.4766 9.25 18.1513 8.9393 18.6235 8.40532C19.0526 7.92011 19.8536 8.17044 19.9301 8.81366C19.9766 9.20475 20 9.60086 20 10C20 15.5228 15.5228 20 10 20C4.47715 20 0 15.5228 0 10C0 4.47715 4.47715 0 10 0ZM10 1.5C5.30558 1.5 1.5 5.30558 1.5 10C1.5 14.6944 5.30558 18.5 10 18.5C14.4367 18.5 18.0795 15.1008 18.4661 10.7646L18.485 10.5085L18.492 10.351L18.2985 10.4391C17.9679 10.5779 17.6173 10.6725 17.2549 10.7183L16.9811 10.7434L16.75 10.75C14.7439 10.75 13.0828 9.27324 12.7943 7.34752L12.7694 7.14675L12.755 6.96L12.6101 6.89964C11.3259 6.32272 10.4199 5.09599 10.2715 3.66565L10.2549 3.44962L10.25 3.25C10.25 2.80313 10.3238 2.36764 10.4636 1.95777L10.5553 1.71503L10.64 1.525L10.3637 1.50763L10 1.5ZM13 14C13.5523 14 14 14.4477 14 15C14 15.5523 13.5523 16 13 16C12.4477 16 12 15.5523 12 15C12 14.4477 12.4477 14 13 14ZM6 13C6.55228 13 7 13.4477 7 14C7 14.5523 6.55228 15 6 15C5.44772 15 5 14.5523 5 14C5 13.4477 5.44772 13 6 13ZM10 9C10.5523 9 11 9.44772 11 10C11 10.5523 10.5523 11 10 11C9.44772 11 9 10.5523 9 10C9 9.44772 9.44772 9 10 9ZM5 6C5.55228 6 6 6.44772 6 7C6 7.55228 5.55228 8 5 8C4.44772 8 4 7.55228 4 7C4 6.44772 4.44772 6 5 6Z" fill="#212121"/>
</svg>
