<svg width="20" height="20" viewBox="0 0 20 20" fill="none" xmlns="http://www.w3.org/2000/svg">
<path d="M8.08112 2.08886C8.61114 2.45462 9.11766 2.69565 9.53523 2.7488C9.30765 3.20089 9.14883 3.68642 9.06589 4.18807C8.39245 4.04032 7.75356 3.68532 7.22916 3.32344C6.96994 3.14455 6.7245 2.95393 6.5 2.76626V4.99956C6.5 5.30581 6.31381 5.58125 6.02974 5.69544L6.02354 5.698C6.01733 5.70058 6.0067 5.70505 5.99202 5.71139C5.96264 5.7241 5.91715 5.74429 5.85841 5.77193C5.74069 5.82732 5.57111 5.91203 5.3721 6.02575C4.97012 6.25545 4.46791 6.59231 4.03033 7.02989C3.57681 7.48341 3.29723 8.0925 3.13933 8.56552C2.93681 9.17221 2.42116 9.73138 1.68711 9.85372C1.57914 9.87172 1.5 9.96514 1.5 10.0746V11.8275C1.5 11.993 1.61961 12.1342 1.7828 12.1614C2.40671 12.2653 2.89825 12.6726 3.17464 13.1674C3.42601 13.6174 3.87291 14.3118 4.53033 14.9692C5.04118 15.4801 5.63608 15.8076 6.11482 16.008C6.3521 16.1073 6.55481 16.1728 6.69504 16.2129C6.76497 16.2328 6.81882 16.2463 6.853 16.2543C6.87007 16.2583 6.88219 16.261 6.88889 16.2624L6.8937 16.2635L6.89478 16.2637C7.24631 16.3328 7.5 16.6411 7.5 16.9996V18.2496C7.5 18.3876 7.61193 18.4996 7.75 18.4996H9C9 17.6711 9.67157 16.9996 10.5 16.9996H12.5C13.3284 16.9996 14 17.6711 14 18.4996H15.25C15.3881 18.4996 15.5 18.3876 15.5 18.2496V15.9996C15.5 15.7168 15.6597 15.4578 15.9118 15.3301L15.9251 15.323C15.939 15.3154 15.9629 15.3021 15.9953 15.2828C16.0602 15.2442 16.1586 15.1821 16.2796 15.0947C16.5223 14.9194 16.851 14.646 17.1806 14.2615C17.8329 13.5005 18.5 12.2936 18.5 10.4996C18.5 9.49295 18.3118 8.67918 17.9913 8.012C18.3492 7.53702 18.619 7.00252 18.7894 6.43604C18.8886 6.57192 18.9827 6.71297 19.0713 6.85944C19.6755 7.85764 20 9.06254 20 10.4996C20 12.7055 19.1671 14.2487 18.3194 15.2377C17.899 15.7282 17.4777 16.0797 17.1579 16.3107C17.1021 16.351 17.0493 16.3877 17 16.4209V18.2496C17 19.2161 16.2165 19.9996 15.25 19.9996H14C13.1716 19.9996 12.5 19.328 12.5 18.4996H10.5C10.5 19.328 9.82843 19.9996 9 19.9996H7.75C6.7835 19.9996 6 19.2161 6 18.2496V17.567C5.86194 17.5204 5.7053 17.4627 5.53573 17.3917C4.93965 17.1422 4.15955 16.7198 3.46967 16.0299C2.68564 15.2459 2.16052 14.4278 1.8651 13.8989C1.77791 13.7429 1.64768 13.6595 1.5362 13.6409C0.64973 13.4932 0 12.7262 0 11.8275V10.0746C0 9.23188 0.609256 8.51268 1.44051 8.37413C1.52742 8.35965 1.6555 8.27334 1.71651 8.09057C1.90886 7.51435 2.28209 6.65682 2.96967 5.96923C3.53209 5.40682 4.15488 4.99368 4.6279 4.72338C4.76427 4.64545 4.88983 4.57848 5 4.52239V1.67072C5 0.732823 6.13062 0.347838 6.73986 0.954502C7.07031 1.28356 7.55006 1.72239 8.08112 2.08886ZM11.07 6.84759C10.5799 6.64464 10.1664 6.25933 10.0679 5.73811C9.7239 3.91664 10.6886 2.04182 12.4689 1.30419C14.5098 0.45862 16.8498 1.42763 17.6954 3.46854C18.433 5.2489 17.7898 7.25683 16.2587 8.3018C15.8206 8.60082 15.2557 8.58096 14.7656 8.37801L11.07 6.84759ZM15.4641 7.0271C16.3837 6.36497 16.7617 5.1338 16.3096 4.04268C15.7811 2.76711 14.3186 2.16148 13.0431 2.68996C11.952 3.14203 11.3489 4.27997 11.5311 5.39836C11.5369 5.40293 11.544 5.40813 11.5525 5.41379C11.5761 5.42952 11.6068 5.44635 11.6439 5.46172L15.3395 6.99214C15.3767 7.00751 15.4103 7.01731 15.4381 7.02287C15.4481 7.02487 15.4568 7.02621 15.4641 7.0271ZM7 7.99953C7 8.55182 6.55228 8.99953 6 8.99953C5.44772 8.99953 5 8.55182 5 7.99953C5 7.44725 5.44772 6.99953 6 6.99953C6.55228 6.99953 7 7.44725 7 7.99953Z" fill="#212121"/>
</svg>
