<svg width="18" height="18" viewBox="0 0 18 18" fill="none" xmlns="http://www.w3.org/2000/svg">
<path d="M14.75 0C16.5449 0 18 1.45507 18 3.25V14.75C18 16.5449 16.5449 18 14.75 18H3.25C1.45507 18 0 16.5449 0 14.75V3.25C0 1.45507 1.45507 0 3.25 0H14.75ZM14.75 1.5H3.25C2.2835 1.5 1.5 2.2835 1.5 3.25V14.75C1.5 15.7165 2.2835 16.5 3.25 16.5H14.75C15.7165 16.5 16.5 15.7165 16.5 14.75V3.25C16.5 2.2835 15.7165 1.5 14.75 1.5ZM10.25 5.00004C10.6642 5.00004 11 5.33583 11 5.75004V8.49933H12.5V5.75004C12.5 5.33583 12.8358 5.00004 13.25 5.00004C13.6642 5.00004 14 5.33583 14 5.75004V12.2204C14 12.6346 13.6642 12.9704 13.25 12.9704C12.8358 12.9704 12.5 12.6346 12.5 12.2204V9.99933H10.25C9.83579 9.99933 9.5 9.66355 9.5 9.24933V5.75004C9.5 5.33583 9.83579 5.00004 10.25 5.00004ZM4.4996 5.74426C4.84712 5.36179 5.41529 4.99993 6.25 4.99993C7.40237 4.99993 8.14425 5.79199 8.40455 6.66117C8.6581 7.50778 8.50431 8.55637 7.78502 9.27902C7.53782 9.52737 7.24687 9.75205 6.99216 9.94874L6.95144 9.98019C6.67226 10.196 6.42291 10.3915 6.20293 10.6109C5.94693 10.8662 5.73828 11.1454 5.6166 11.4999H7.75C8.16421 11.4999 8.5 11.8357 8.5 12.2499C8.5 12.6641 8.16421 12.9999 7.75 12.9999H4.75C4.55108 12.9999 4.36032 12.9209 4.21966 12.7803C4.07901 12.6396 3.99999 12.4488 4 12.2499C4.00002 11.003 4.52401 10.1669 5.14368 9.54887C5.44008 9.25325 5.76184 9.00382 6.03416 8.79335L6.03716 8.79103C6.32316 8.56999 6.54507 8.39848 6.72189 8.22083C6.99421 7.94724 7.0887 7.49583 6.96761 7.0915C6.85328 6.70974 6.59763 6.49993 6.25 6.49993C5.89721 6.49993 5.71538 6.63675 5.60977 6.75298C5.55041 6.81831 5.5098 6.88474 5.48503 6.93314C5.47297 6.95672 5.46567 6.97406 5.4625 6.98201L5.46143 6.98473C5.33245 7.37169 4.91661 7.58547 4.52576 7.463C4.13049 7.33916 3.91046 6.91834 4.03431 6.52307L4.069 6.4269C4.08755 6.38031 4.11395 6.31972 4.14973 6.2498C4.22066 6.11119 4.3324 5.92827 4.4996 5.74426Z" fill="#212121"/>
</svg>
