<svg width="41" height="29" viewBox="0 0 41 29" fill="none" xmlns="http://www.w3.org/2000/svg">
<path d="M15.5439 1.01953C14.4844 0.48327 13.3135 0.39694 12.2415 0.602515L9.99782 1.03277C8.26113 1.36581 6.76774 2.48417 5.96523 4.06416C3.23125 9.44687 1.17702 13.837 0.375491 17.5749C-0.446783 21.4097 0.0260158 24.6763 2.41987 27.6563C4.01929 29.6474 6.82303 29.2506 8.28007 27.5897C9.32969 26.3932 10.5096 25.0273 11.6737 23.6699C12.582 22.6107 13.9045 22 15.2953 22H24.708C26.0988 22 27.4213 22.6107 28.3296 23.6699C29.4937 25.0273 30.6736 26.3932 31.7232 27.5897C33.1803 29.2506 35.984 29.6474 37.5834 27.6563C39.9773 24.6763 40.4501 21.4097 39.6278 17.5749C38.8263 13.837 36.7721 9.44687 34.0381 4.06416C33.2356 2.48417 31.7422 1.36581 30.0055 1.03277L27.7618 0.602515C26.6898 0.39694 25.5189 0.48327 24.4594 1.01953C24.2536 1.1237 24.0441 1.23331 23.8327 1.34684C23.0488 1.76777 22.2071 2.00001 21.3707 2.00001H18.6326C17.7962 2.00001 16.9545 1.76777 16.1706 1.34684C15.9592 1.23331 15.7497 1.1237 15.5439 1.01953ZM12.7123 3.05778C13.3389 2.93763 13.9313 3.00531 14.4149 3.25009C14.6004 3.34401 14.7919 3.44414 14.9878 3.54934C16.0869 4.13955 17.3318 4.50001 18.6326 4.50001H21.3707C22.6715 4.50001 23.9164 4.13955 25.0155 3.54934C25.2114 3.44414 25.4029 3.34401 25.5884 3.25009C26.072 3.00531 26.6644 2.93763 27.291 3.05778L29.5347 3.48803C30.516 3.67622 31.3583 4.30877 31.8091 5.1963C34.5647 10.6215 36.4608 14.7293 37.1834 18.0991C37.8852 21.3722 37.4559 23.8232 35.6344 26.0907C35.2177 26.6094 34.2685 26.7001 33.6026 25.941C32.5615 24.7542 31.3883 23.3961 30.2274 22.0424C28.8471 20.4329 26.833 19.5 24.708 19.5H15.2953C13.1704 19.5 11.1562 20.4329 9.77593 22.0424C8.61505 23.3961 7.44182 24.7542 6.40071 25.941C5.73482 26.7001 4.78556 26.6094 4.3689 26.0907C2.5474 23.8232 2.11809 21.3722 2.81993 18.0991C3.54251 14.7293 5.43862 10.6215 8.19419 5.1963C8.64499 4.30877 9.48731 3.67622 10.4687 3.48803L12.7123 3.05778ZM19.998 11C21.1026 11 21.998 10.1046 21.998 9C21.998 7.89543 21.1026 7 19.998 7C18.8935 7 17.998 7.89543 17.998 9C17.998 10.1046 18.8935 11 19.998 11Z" fill="#212121"/>
</svg>
