<svg width="21" height="20" viewBox="0 0 21 20" fill="none" xmlns="http://www.w3.org/2000/svg">
<path d="M11.0572 5.43175C12.0335 4.45543 13.6164 4.45544 14.5927 5.43175C15.569 6.40806 15.569 7.99097 14.5927 8.96728C13.6164 9.94359 12.0335 9.94359 11.0572 8.96728C10.0809 7.99097 10.0809 6.40806 11.0572 5.43175ZM13.532 6.49241C13.1415 6.10188 12.5084 6.10188 12.1178 6.49241C11.7273 6.88293 11.7273 7.51609 12.1178 7.90662C12.5084 8.29714 13.1415 8.29714 13.532 7.90662C13.9226 7.5161 13.9226 6.88293 13.532 6.49241ZM19.5086 2.32314C19.2398 1.45833 18.5625 0.781295 17.6976 0.512872L17.0355 0.307405C14.642 -0.435423 12.034 0.209 10.2618 1.98111L9.26597 2.97699C7.89622 1.94835 5.94316 2.05719 4.69685 3.3035L3.45432 4.54603C3.16142 4.83893 3.16142 5.3138 3.45432 5.6067L5.04529 7.19767L4.86548 7.37748C4.18206 8.0609 4.18206 9.16893 4.86548 9.85235L5.36083 10.3477L3.96527 11.1437C3.76212 11.2595 3.62465 11.4635 3.59352 11.6953C3.56238 11.9271 3.64115 12.1601 3.80651 12.3255L7.69562 16.2146C7.86086 16.3798 8.0937 16.4586 8.32533 16.4276C8.55696 16.3967 8.76093 16.2595 8.87696 16.0566L9.67488 14.6618L10.1721 15.1589C10.8555 15.8423 11.9635 15.8423 12.6469 15.1589L12.8237 14.9821L14.4133 16.5717C14.7062 16.8646 15.1811 16.8646 15.474 16.5717L16.7165 15.3292C17.9623 14.0834 18.0716 12.1313 17.0442 10.7617L18.0421 9.76371C19.8149 7.99092 20.4591 5.3816 19.715 2.98744L19.5086 2.32314ZM17.253 1.94547C17.6461 2.06748 17.954 2.37522 18.0762 2.76831L18.2826 3.43262C18.8613 5.29474 18.3603 7.32421 16.9815 8.70306L11.5863 14.0983C11.4886 14.1959 11.3303 14.1959 11.2327 14.0983L5.92614 8.79169C5.82851 8.69406 5.82851 8.53577 5.92614 8.43814L11.3225 3.04177C12.7008 1.66346 14.7293 1.16225 16.5909 1.74L17.253 1.94547ZM15.9641 11.8418C16.4166 12.6075 16.3139 13.6105 15.6558 14.2685L14.9436 14.9807L13.8844 13.9215L15.9641 11.8418ZM5.75751 4.36416C6.41602 3.70565 7.42005 3.60324 8.18602 4.05693L6.10595 6.13701L5.04531 5.07636L5.75751 4.36416ZM8.57562 13.5625L8.06227 14.4599L5.56209 11.9597L6.46047 11.4473L8.57562 13.5625ZM4.68987 16.3952C4.98276 16.1023 4.98276 15.6274 4.68987 15.3345C4.39697 15.0416 3.9221 15.0416 3.62921 15.3345L1.15433 17.8094C0.86144 18.1023 0.86144 18.5772 1.15433 18.87C1.44723 19.1629 1.9221 19.1629 2.21499 18.87L4.68987 16.3952ZM2.74529 13.39C3.03818 13.6829 3.03818 14.1577 2.74529 14.4506L1.68463 15.5113C1.39173 15.8042 0.91686 15.8042 0.623967 15.5113C0.331073 15.2184 0.331074 14.7435 0.623967 14.4506L1.68463 13.39C1.97752 13.0971 2.45239 13.0971 2.74529 13.39ZM6.63238 18.3418C6.92528 18.0489 6.92528 17.574 6.63239 17.2812C6.33951 16.9883 5.86463 16.9882 5.57173 17.2811L4.51313 18.3397C4.22023 18.6326 4.22023 19.1075 4.51312 19.4004C4.80601 19.6933 5.28088 19.6933 5.57378 19.4004L6.63238 18.3418Z" fill="#212121"/>
</svg>
