<svg width="16" height="16" viewBox="0 0 16 16" fill="none" xmlns="http://www.w3.org/2000/svg">
<path d="M9.9582 4.20041C10.0689 3.94742 9.95353 3.65261 9.70054 3.54193C9.44755 3.43124 9.15273 3.54661 9.04205 3.79959L5.54205 11.7996C5.43136 12.0526 5.54673 12.3474 5.79972 12.4581C6.05271 12.5688 6.34752 12.4534 6.45821 12.2004L9.9582 4.20041ZM4.85355 5.64645C5.04882 5.84171 5.04882 6.15829 4.85355 6.35355L3.20711 8L4.85355 9.64645C5.04882 9.84171 5.04882 10.1583 4.85355 10.3536C4.65829 10.5488 4.34171 10.5488 4.14645 10.3536L2.14645 8.35355C1.95118 8.15829 1.95118 7.84171 2.14645 7.64645L4.14645 5.64645C4.34171 5.45118 4.65829 5.45118 4.85355 5.64645ZM11.1464 6.35355C10.9512 6.15829 10.9512 5.84171 11.1464 5.64645C11.3417 5.45118 11.6583 5.45118 11.8536 5.64645L13.8536 7.64645C14.0488 7.84171 14.0488 8.15829 13.8536 8.35355L11.8536 10.3536C11.6583 10.5488 11.3417 10.5488 11.1464 10.3536C10.9512 10.1583 10.9512 9.84171 11.1464 9.64645L12.7929 8L11.1464 6.35355ZM8 0C3.58172 0 0 3.58172 0 8C0 12.4183 3.58172 16 8 16C12.4183 16 16 12.4183 16 8C16 3.58172 12.4183 0 8 0ZM1 8C1 4.13401 4.13401 1 8 1C11.866 1 15 4.13401 15 8C15 11.866 11.866 15 8 15C4.13401 15 1 11.866 1 8Z" fill="#212121"/>
</svg>
