<svg width="16" height="20" viewBox="0 0 16 20" fill="none" xmlns="http://www.w3.org/2000/svg">
<path d="M8 0.00195312C12.0041 0.00195312 15.25 3.24789 15.25 7.25195C15.25 9.34801 14.3493 11.2717 12.5869 12.9939C12.51 13.0691 12.4504 13.1596 12.4118 13.2592L12.3804 13.3615L11.2493 18.2571C11.0266 19.221 10.2035 19.9193 9.23025 19.9939L9.05704 20.0006H6.94326C5.95374 20.0006 5.08791 19.3555 4.79629 18.4238L4.75088 18.2565L3.62132 13.3617C3.58904 13.2218 3.51728 13.0941 3.41456 12.9938C1.73515 11.3536 0.837782 9.53071 0.756126 7.55021L0.75 7.25195L0.753875 7.01264C0.880141 3.11935 4.07601 0.00195312 8 0.00195312ZM10.115 16.5H5.884L6.21247 17.9192C6.28314 18.2255 6.53566 18.4514 6.84005 18.4935L6.94326 18.5006H9.05704C9.37129 18.5006 9.64813 18.3054 9.75765 18.0183L9.78779 17.9194L10.115 16.5ZM8 1.50195C4.89821 1.50195 2.37006 3.95797 2.25415 7.0314L2.25 7.25195L2.25672 7.52896C2.33286 9.09233 3.05722 10.5481 4.46262 11.9207C4.72675 12.1787 4.92265 12.497 5.03422 12.8469L5.08291 13.0244L5.538 15H10.461L10.9189 13.0238C11.0019 12.6644 11.1718 12.3319 11.4124 12.0548L11.5386 11.9211C12.9432 10.5485 13.6672 9.09259 13.7433 7.529L13.75 7.25195L13.7458 7.0314C13.6299 3.95797 11.1018 1.50195 8 1.50195Z" fill="#212121"/>
</svg>
