<svg width="36" height="36" viewBox="0 0 36 36" fill="none" xmlns="http://www.w3.org/2000/svg">
<path d="M0 6.25C0 2.79822 2.79822 0 6.25 0H12.75C13.4404 0 14 0.559644 14 1.25C14 1.94036 13.4404 2.5 12.75 2.5H6.25C4.17893 2.5 2.5 4.17893 2.5 6.25V12.75C2.5 13.4404 1.94036 14 1.25 14C0.559644 14 0 13.4404 0 12.75V6.25ZM36 6.25C36 2.79822 33.2018 0 29.75 0H23.25C22.5596 0 22 0.559644 22 1.25C22 1.94036 22.5596 2.5 23.25 2.5H29.75C31.8211 2.5 33.5 4.17893 33.5 6.25V12.75C33.5 13.4404 34.0596 14 34.75 14C35.4404 14 36 13.4404 36 12.75V6.25ZM6.25 36C2.79822 36 0 33.2018 0 29.75V23.25C0 22.5596 0.559644 22 1.25 22C1.94036 22 2.5 22.5596 2.5 23.25V29.75C2.5 31.8211 4.17893 33.5 6.25 33.5H12.75C13.4404 33.5 14 34.0596 14 34.75C14 35.4404 13.4404 36 12.75 36H6.25ZM36 29.75C36 33.2018 33.2018 36 29.75 36H23.25C22.5596 36 22 35.4404 22 34.75C22 34.0596 22.5596 33.5 23.25 33.5H29.75C31.8211 33.5 33.5 31.8211 33.5 29.75V23.25C33.5 22.5596 34.0596 22 34.75 22C35.4404 22 36 22.5596 36 23.25V29.75ZM19.2921 5.75C18.3684 5.75 17.6672 6.17496 17.2071 6.79568C16.8007 7.34404 16.6068 8.00877 16.4888 8.53598C16.4115 8.88163 16.3449 9.2876 16.289 9.62902C16.2626 9.78995 16.2385 9.9367 16.2168 10.0559C16.1775 10.272 16.1404 10.4407 16.1015 10.5724C16.0658 10.6931 16.0401 10.7423 16.0365 10.7492C16.0361 10.75 16.0362 10.7496 16.0365 10.7492L13.1751 15.1971C12.6434 16.0235 11.858 16.6601 10.933 17.0119L9.67815 17.4892C8.32237 18.0048 7.52653 19.4186 7.80548 20.8477L8.49033 24.3562C8.75136 25.6935 9.76999 26.7516 11.0915 27.0733L19.3253 29.0781C22.51 29.8535 25.7399 27.9369 26.5543 24.7637L28.1252 18.6436C28.6701 16.5205 27.453 14.4318 25.3071 13.8883C25.0922 13.8338 24.8124 13.8023 24.6184 13.7843C24.4065 13.7646 24.1692 13.75 24.0002 13.75H22.6678C22.8902 12.8675 23.0374 12.0034 23.0374 11.2113C23.0374 9.88014 22.7784 8.59579 22.2109 7.59651C21.6311 6.57539 20.6487 5.75 19.2921 5.75ZM18.1388 12.1023C18.464 11.5969 18.5953 10.9488 18.6764 10.5038C18.7156 10.2882 18.7467 10.0962 18.776 9.91517C18.8227 9.62693 18.8649 9.3663 18.9285 9.08182C19.028 8.63724 19.1317 8.39752 19.2156 8.28437C19.2209 8.27717 19.2247 8.27143 19.2278 8.26688C19.2328 8.25931 19.2357 8.25499 19.2398 8.25257C19.2451 8.24936 19.2525 8.24948 19.2696 8.24977C19.2757 8.24987 19.2831 8.25 19.2921 8.25C19.4935 8.25 19.7588 8.34111 20.037 8.83106C20.3277 9.34285 20.5374 10.1641 20.5374 11.2113C20.5374 12.0678 20.2667 13.213 19.8114 14.6136C19.6877 14.9941 19.7537 15.4109 19.9889 15.7347C20.2241 16.0584 20.6 16.25 21.0002 16.25H24.0002C24.0599 16.25 24.2118 16.2573 24.3873 16.2736C24.4705 16.2813 24.5476 16.29 24.6103 16.2988C24.6591 16.3055 24.6852 16.3104 24.6932 16.3119C24.695 16.3123 24.6959 16.3125 24.6959 16.3124L24.6932 16.3119C25.4851 16.5125 25.9078 17.2268 25.7037 18.022L24.1328 24.1422C23.662 25.9767 21.7848 27.1039 19.9167 26.649L11.6829 24.6443C11.3021 24.5516 11.0166 24.2493 10.944 23.8773L10.2592 20.3688C10.2153 20.144 10.3389 19.9126 10.5669 19.8259L11.8217 19.3486C13.244 18.8077 14.4557 17.8272 15.2776 16.5497L18.1388 12.1023Z" fill="#212121"/>
</svg>
