<svg width="40" height="35" viewBox="0 0 40 35" fill="none" xmlns="http://www.w3.org/2000/svg">
<path d="M3.92256 3.15452C8.03551 -0.141743 13.9621 0.152096 17.7289 3.83903L20.0004 6.06246L22.2672 3.84219C26.0335 0.15321 31.9616 -0.141882 36.0756 3.15483C40.9265 7.04197 41.3172 14.2843 36.9128 18.6707L20.8828 34.6353C20.3951 35.121 19.6064 35.1211 19.1187 34.6354L3.08636 18.6702C-1.31827 14.2841 -0.927957 7.04189 3.92256 3.15452ZM15.9801 5.62562C13.1171 2.8232 8.61224 2.59985 5.486 5.10532C1.79914 8.0601 1.50247 13.5648 4.85041 16.8988L20.0007 31.9855L35.1486 16.8994C38.4965 13.5652 38.1995 8.06034 34.5123 5.10574C31.3853 2.59991 26.8793 2.82421 24.0165 5.6282L20.8754 8.70489C20.3895 9.18077 19.6123 9.1809 19.1263 8.70518L15.9801 5.62562Z" fill="#212121"/>
</svg>
