<svg width="28" height="34" viewBox="0 0 28 34" fill="none" xmlns="http://www.w3.org/2000/svg">
<path d="M12.5033 0.776374L27.0033 3.77637C27.5837 3.89647 28 4.40771 28 5.00045V29.0005C28 29.5932 27.5837 30.1044 27.0033 30.2245L12.5033 33.2245C11.7275 33.385 11 32.7926 11 32.0005V2.00045C11 1.20826 11.7275 0.615873 12.5033 0.776374ZM8 3.00045V5.50045H2.5V28.5005H8V31.0005H1.25C0.602791 31.0005 0.070466 30.5086 0.00645351 29.8783L0 29.7505V4.25045C0 3.60324 0.491875 3.07092 1.1222 3.0069L1.25 3.00045H8ZM13.5 3.53554V30.4654L25.5 27.9826V6.0183L13.5 3.53554ZM16.5 15.5005C17.3284 15.5005 18 16.172 18 17.0005C18 17.8289 17.3284 18.5005 16.5 18.5005C15.6716 18.5005 15 17.8289 15 17.0005C15 16.172 15.6716 15.5005 16.5 15.5005Z" fill="#212121"/>
</svg>
