<svg width="21" height="25" viewBox="0 0 21 25" fill="none" xmlns="http://www.w3.org/2000/svg">
<path d="M5.40596 0.851675C5.60483 0.338338 6.09874 0 6.64925 0H15.1645C16.0913 0 16.7354 0.922193 16.4163 1.79234L14.3235 7.5H19.1608C20.3391 7.5 20.9382 8.91628 20.1177 9.76185L6.78392 23.5031C5.64373 24.6782 3.67801 23.62 4.03091 22.0212L5.69106 14.5H2.91652C1.56947 14.5 0.642673 13.147 1.12929 11.8909L5.40596 0.851675ZM6.76342 1.5L2.528 12.4328C2.42221 12.7059 2.62369 13 2.91652 13H6.62466C6.85196 13 7.067 13.1031 7.20936 13.2803C7.35172 13.4575 7.40603 13.6897 7.35703 13.9117L5.49565 22.3446C5.4852 22.3919 5.49394 22.4137 5.49954 22.425C5.50814 22.4422 5.527 22.4646 5.55847 22.4816C5.58994 22.4985 5.61905 22.5019 5.63817 22.4996C5.65062 22.4981 5.67364 22.4934 5.70742 22.4585L18.7669 9H13.2497C13.0047 9 12.7751 8.88032 12.6348 8.67945C12.4945 8.47858 12.4612 8.22185 12.5455 7.99181L14.9259 1.5H6.76342Z" fill="#212121"/>
</svg>
