<svg width="20" height="17" viewBox="0 0 20 17" fill="none" xmlns="http://www.w3.org/2000/svg">
<path d="M8.212 14.11L13.0434 0.499123C13.2657 -0.127264 14.1126 -0.164065 14.4083 0.388656L14.457 0.4992L19.957 15.9997C20.0955 16.3901 19.8913 16.8188 19.501 16.9573C19.1431 17.0843 18.7531 16.9233 18.5838 16.5949L18.5434 16.5013L16.946 12H10.552L8.97262 16.4521C8.92014 16.6396 8.7955 16.8048 8.6175 16.9045L8.52533 16.9482C8.17211 17.0875 7.77668 16.9401 7.59619 16.6178L7.55249 16.5256L6.556 14H2.443L1.44768 16.5209C1.30809 16.874 0.930332 17.0621 0.571635 16.9737L0.474474 16.9426C0.121369 16.803 -0.066722 16.4253 0.0216754 16.0666L0.0527225 15.9694L3.80633 6.47427C4.04172 5.87883 4.84884 5.84415 5.15104 6.36975L5.20152 6.47487L8.212 14.11L13.0434 0.499123L8.212 14.11ZM4.50294 8.79226L3.036 12.5H5.964L4.50294 8.79226ZM13.7501 2.99248L11.084 10.5H16.414L13.7501 2.99248Z" fill="#212121"/>
</svg>
