<svg width="18" height="18" viewBox="0 0 18 18" fill="none" xmlns="http://www.w3.org/2000/svg">
<path d="M6.20337 0.999304L6.25042 0.998047L6.29617 0.999255C6.31861 1.00055 6.34109 1.00288 6.36355 1.00628L6.37963 1.01009C6.46504 1.02381 6.54992 1.05432 6.63082 1.10224L6.68268 1.13578L11.753 4.70105L16.82 1.13913C17.2878 0.810336 17.9215 1.10586 17.9944 1.6482L18.0014 1.75269V12.3852C18.0014 12.5945 17.914 12.7926 17.7632 12.9334L17.6827 12.9988L12.1827 16.8652C11.9158 17.0528 11.5948 17.0371 11.3549 16.8883L6.25002 13.297L1.18035 16.8618C0.712631 17.1906 0.0788896 16.8951 0.00595021 16.3527L-0.000976562 16.2483V5.61572C-0.000976562 5.4064 0.0863755 5.20832 0.237144 5.06755L0.317702 5.00216L5.8177 1.13578C5.8817 1.09079 5.94882 1.05749 6.01717 1.03491L6.13964 1.0069L6.20337 0.999304ZM16.5014 3.1967L12.5014 6.00861V14.8076L16.5014 11.9957V3.1967ZM5.49902 3.19335L1.49902 6.00526V14.8042L5.49902 11.9923V3.19335ZM7.00136 3.19335V11.9923L11.0014 14.8042V6.00526L7.00136 3.19335Z" fill="#212121"/>
</svg>
