<svg width="40" height="34" viewBox="0 0 40 34" fill="none" xmlns="http://www.w3.org/2000/svg">
<path d="M4.75 0C2.12665 0 0 2.12665 0 4.75V23.25C0 25.8734 2.12665 28 4.75 28H35.25C37.8734 28 40 25.8734 40 23.25V4.75C40 2.12665 37.8734 0 35.25 0H4.75ZM2.5 4.75C2.5 3.50736 3.50736 2.5 4.75 2.5H35.25C36.4926 2.5 37.5 3.50736 37.5 4.75V23.25C37.5 24.4926 36.4926 25.5 35.25 25.5H4.75C3.50736 25.5 2.5 24.4926 2.5 23.25V4.75ZM7.25 31.5C6.55964 31.5 6 32.0596 6 32.75C6 33.4404 6.55964 34 7.25 34H32.75C33.4404 34 34 33.4404 34 32.75C34 32.0596 33.4404 31.5 32.75 31.5H7.25Z" fill="#212121"/>
</svg>
